<?xml version="1.0" encoding="UTF-8"?>
<svg xmlns="http://www.w3.org/2000/svg" xmlns:xlink="http://www.w3.org/1999/xlink" width="30px" height="30px" viewBox="0 0 30 30" version="1.1">
<g id="surface1">
<path style=" stroke:none;fill-rule:nonzero;fill:rgb(0%,12.54902%,31.37255%);fill-opacity:1;" d="M 28.339844 11.847656 C 28.082031 11.488281 27.695312 11.25 27.261719 11.179688 C 26.511719 11.046875 25.761719 10.929688 25.007812 10.824219 L 25.007812 5.441406 C 25.007812 4.519531 24.421875 3.699219 23.550781 3.398438 L 23.53125 3.394531 L 23.515625 3.394531 L 16.042969 1.132812 C 15.707031 1.019531 15.355469 0.964844 15 0.964844 C 14.644531 0.964844 14.292969 1.019531 13.960938 1.132812 L 6.484375 3.394531 L 6.46875 3.394531 L 6.449219 3.398438 C 5.578125 3.695312 4.992188 4.515625 4.992188 5.4375 L 4.992188 10.820312 C 4.238281 10.925781 3.488281 11.042969 2.738281 11.171875 C 2.304688 11.242188 1.917969 11.484375 1.660156 11.84375 C 1.453125 12.140625 1.371094 12.507812 1.4375 12.867188 L 2.535156 18.605469 C 2.695312 19.378906 3.441406 19.886719 4.21875 19.753906 C 4.480469 19.707031 4.738281 19.664062 5 19.625 C 5.015625 21.054688 5.5625 22.445312 6.628906 23.761719 C 7.445312 24.761719 8.566406 25.722656 9.964844 26.613281 C 11.449219 27.546875 13.03125 28.320312 14.683594 28.917969 L 15.011719 29.03125 L 15.335938 28.914062 C 16.984375 28.304688 18.566406 27.523438 20.050781 26.582031 C 21.449219 25.679688 22.566406 24.726562 23.378906 23.726562 C 24.445312 22.417969 24.996094 21.039062 25.011719 19.628906 C 25.269531 19.671875 25.53125 19.710938 25.789062 19.757812 C 25.871094 19.769531 25.957031 19.777344 26.039062 19.777344 C 26.734375 19.777344 27.332031 19.289062 27.472656 18.609375 L 28.566406 12.871094 C 28.632812 12.511719 28.550781 12.144531 28.339844 11.847656 Z M 28.339844 11.847656 "/>
<path style=" stroke:none;fill-rule:nonzero;fill:rgb(0%,39.215687%,70.980394%);fill-opacity:1;" d="M 6 19.433594 L 6 19.570312 C 6 24.902344 15 27.976562 15 27.976562 C 15 27.976562 24 24.824219 24 19.570312 L 24 19.476562 C 18.03125 18.609375 11.972656 18.59375 6 19.433594 Z M 6 19.433594 "/>
<path style=" stroke:none;fill-rule:nonzero;fill:rgb(31.37255%,31.37255%,31.37255%);fill-opacity:1;" d="M 24 10.691406 L 24 5.480469 C 24 4.988281 23.6875 4.550781 23.222656 4.390625 L 15.738281 2.125 C 15.261719 1.964844 14.742188 1.964844 14.265625 2.125 L 6.773438 4.390625 C 6.308594 4.550781 6 4.988281 6 5.480469 L 6 10.691406 C 11.976562 9.941406 18.023438 9.941406 24 10.691406 Z M 24 10.691406 "/>
<path style=" stroke:none;fill-rule:nonzero;fill:rgb(100%,100%,100%);fill-opacity:1;" d="M 10.398438 8.851562 C 10.289062 8.90625 10.164062 8.933594 10.035156 8.929688 C 9.867188 8.9375 9.703125 8.871094 9.585938 8.75 C 9.472656 8.621094 9.410156 8.449219 9.417969 8.277344 C 9.410156 8.085938 9.476562 7.902344 9.609375 7.765625 C 9.734375 7.632812 9.910156 7.5625 10.089844 7.566406 C 10.195312 7.5625 10.300781 7.582031 10.398438 7.621094 L 10.398438 7.785156 C 10.304688 7.730469 10.195312 7.703125 10.089844 7.707031 C 9.949219 7.699219 9.816406 7.753906 9.722656 7.855469 C 9.625 7.96875 9.574219 8.109375 9.578125 8.257812 C 9.574219 8.398438 9.621094 8.535156 9.710938 8.640625 C 9.800781 8.734375 9.925781 8.789062 10.058594 8.78125 C 10.175781 8.789062 10.296875 8.757812 10.398438 8.699219 Z M 11.742188 8.90625 L 11.042969 8.90625 L 11.042969 7.59375 L 11.710938 7.59375 L 11.710938 7.734375 L 11.199219 7.734375 L 11.199219 8.171875 L 11.675781 8.171875 L 11.675781 8.308594 L 11.199219 8.308594 L 11.199219 8.769531 L 11.742188 8.769531 Z M 13.316406 8.90625 L 13.132812 8.90625 L 12.910156 8.539062 C 12.894531 8.507812 12.875 8.480469 12.851562 8.453125 C 12.835938 8.429688 12.816406 8.410156 12.796875 8.394531 C 12.773438 8.378906 12.753906 8.367188 12.730469 8.359375 C 12.703125 8.351562 12.679688 8.347656 12.652344 8.347656 L 12.527344 8.347656 L 12.527344 8.90625 L 12.371094 8.90625 L 12.371094 7.59375 L 12.765625 7.59375 C 12.820312 7.59375 12.871094 7.601562 12.925781 7.613281 C 12.96875 7.628906 13.011719 7.648438 13.050781 7.679688 C 13.085938 7.710938 13.113281 7.746094 13.136719 7.789062 C 13.171875 7.878906 13.175781 7.980469 13.144531 8.070312 C 13.128906 8.105469 13.109375 8.140625 13.085938 8.171875 C 13.058594 8.199219 13.027344 8.226562 12.992188 8.246094 C 12.957031 8.269531 12.914062 8.285156 12.871094 8.296875 C 12.894531 8.304688 12.914062 8.316406 12.929688 8.328125 C 12.949219 8.34375 12.964844 8.359375 12.976562 8.375 C 12.992188 8.390625 13.007812 8.410156 13.019531 8.433594 C 13.035156 8.453125 13.050781 8.480469 13.066406 8.507812 Z M 12.527344 7.734375 L 12.527344 8.210938 L 12.734375 8.210938 C 12.769531 8.210938 12.808594 8.203125 12.84375 8.191406 C 12.875 8.179688 12.902344 8.164062 12.925781 8.140625 C 12.953125 8.121094 12.96875 8.09375 12.984375 8.0625 C 12.996094 8.027344 13.003906 7.992188 13.003906 7.957031 C 13.007812 7.894531 12.980469 7.832031 12.933594 7.792969 C 12.878906 7.75 12.808594 7.726562 12.734375 7.734375 Z M 14.566406 7.734375 L 14.1875 7.734375 L 14.1875 8.90625 L 14.03125 8.90625 L 14.03125 7.734375 L 13.652344 7.734375 L 13.652344 7.59375 L 14.566406 7.59375 Z M 15.300781 8.90625 L 15.144531 8.90625 L 15.144531 7.59375 L 15.300781 7.59375 Z M 16.691406 7.734375 L 16.179688 7.734375 L 16.179688 8.1875 L 16.652344 8.1875 L 16.652344 8.324219 L 16.179688 8.324219 L 16.179688 8.90625 L 16.023438 8.90625 L 16.023438 7.59375 L 16.691406 7.59375 Z M 17.472656 8.90625 L 17.316406 8.90625 L 17.316406 7.59375 L 17.472656 7.59375 Z M 18.890625 8.90625 L 18.191406 8.90625 L 18.191406 7.59375 L 18.859375 7.59375 L 18.859375 7.734375 L 18.347656 7.734375 L 18.347656 8.171875 L 18.820312 8.171875 L 18.820312 8.308594 L 18.347656 8.308594 L 18.347656 8.769531 L 18.890625 8.769531 Z M 19.519531 8.90625 L 19.519531 7.59375 L 19.882812 7.59375 C 20.351562 7.59375 20.585938 7.808594 20.585938 8.234375 C 20.59375 8.417969 20.523438 8.59375 20.390625 8.722656 C 20.25 8.851562 20.0625 8.917969 19.875 8.90625 Z M 19.675781 7.734375 L 19.675781 8.769531 L 19.875 8.769531 C 20.019531 8.777344 20.164062 8.726562 20.273438 8.628906 C 20.375 8.523438 20.429688 8.382812 20.417969 8.238281 C 20.417969 7.902344 20.238281 7.734375 19.882812 7.738281 Z M 11.40625 6.464844 L 11.015625 6.464844 L 11.015625 5.40625 C 11.015625 5.292969 11.019531 5.167969 11.027344 5.03125 L 11.019531 5.03125 C 11.003906 5.109375 10.988281 5.1875 10.964844 5.265625 L 10.550781 6.464844 L 10.222656 6.464844 L 9.800781 5.277344 C 9.777344 5.195312 9.757812 5.113281 9.742188 5.03125 L 9.734375 5.03125 C 9.742188 5.203125 9.75 5.355469 9.75 5.488281 L 9.75 6.464844 L 9.394531 6.464844 L 9.394531 4.699219 L 9.976562 4.699219 L 10.339844 5.746094 C 10.367188 5.832031 10.386719 5.914062 10.398438 6 L 10.40625 6 C 10.429688 5.898438 10.453125 5.816406 10.476562 5.742188 L 10.839844 4.699219 L 11.40625 4.699219 Z M 11.96875 5 C 11.910156 5.003906 11.851562 4.980469 11.808594 4.941406 C 11.765625 4.90625 11.742188 4.851562 11.742188 4.796875 C 11.742188 4.742188 11.765625 4.691406 11.808594 4.65625 C 11.902344 4.582031 12.035156 4.582031 12.132812 4.65625 C 12.171875 4.691406 12.195312 4.742188 12.191406 4.796875 C 12.195312 4.851562 12.171875 4.90625 12.132812 4.941406 C 12.085938 4.980469 12.027344 5.003906 11.96875 5 Z M 12.160156 6.460938 L 11.769531 6.460938 L 11.769531 5.199219 L 12.160156 5.199219 Z M 13.445312 6.421875 C 13.328125 6.476562 13.195312 6.503906 13.0625 6.496094 C 12.890625 6.503906 12.71875 6.441406 12.59375 6.320312 C 12.472656 6.199219 12.40625 6.035156 12.414062 5.863281 C 12.402344 5.675781 12.472656 5.492188 12.605469 5.359375 C 12.746094 5.230469 12.933594 5.164062 13.121094 5.171875 C 13.234375 5.164062 13.34375 5.183594 13.445312 5.230469 L 13.445312 5.5625 C 13.367188 5.503906 13.269531 5.46875 13.171875 5.472656 C 13.074219 5.464844 12.976562 5.503906 12.90625 5.570312 C 12.839844 5.644531 12.800781 5.742188 12.808594 5.84375 C 12.804688 5.9375 12.835938 6.03125 12.898438 6.101562 C 12.96875 6.167969 13.0625 6.199219 13.15625 6.195312 C 13.257812 6.195312 13.359375 6.160156 13.441406 6.105469 Z M 14.523438 5.554688 C 14.472656 5.527344 14.417969 5.515625 14.359375 5.515625 C 14.28125 5.511719 14.207031 5.546875 14.160156 5.609375 C 14.109375 5.683594 14.082031 5.773438 14.089844 5.863281 L 14.089844 6.464844 L 13.699219 6.464844 L 13.699219 5.199219 L 14.089844 5.199219 L 14.089844 5.433594 C 14.125 5.28125 14.265625 5.175781 14.421875 5.179688 C 14.457031 5.175781 14.488281 5.179688 14.523438 5.191406 Z M 15.300781 6.5 C 15.117188 6.511719 14.9375 6.449219 14.800781 6.324219 C 14.675781 6.195312 14.609375 6.019531 14.617188 5.84375 C 14.609375 5.660156 14.675781 5.480469 14.808594 5.351562 C 14.945312 5.230469 15.128906 5.167969 15.3125 5.175781 C 15.496094 5.164062 15.671875 5.230469 15.804688 5.351562 C 15.929688 5.476562 15.992188 5.644531 15.984375 5.820312 C 15.996094 6.003906 15.929688 6.1875 15.800781 6.320312 C 15.664062 6.445312 15.484375 6.511719 15.300781 6.5 Z M 15.308594 5.472656 C 15.226562 5.46875 15.148438 5.503906 15.09375 5.570312 C 15.039062 5.648438 15.011719 5.742188 15.019531 5.839844 C 15.019531 6.078125 15.117188 6.199219 15.3125 6.199219 C 15.507812 6.199219 15.601562 6.078125 15.59375 5.828125 C 15.589844 5.589844 15.496094 5.472656 15.308594 5.472656 Z M 16.15625 6.433594 L 16.15625 6.117188 C 16.214844 6.152344 16.28125 6.183594 16.347656 6.203125 C 16.40625 6.222656 16.46875 6.230469 16.527344 6.230469 C 16.585938 6.234375 16.640625 6.222656 16.691406 6.203125 C 16.726562 6.191406 16.753906 6.15625 16.753906 6.117188 C 16.753906 6.09375 16.742188 6.070312 16.726562 6.054688 C 16.703125 6.039062 16.679688 6.023438 16.65625 6.011719 C 16.625 6 16.59375 5.988281 16.5625 5.980469 C 16.527344 5.96875 16.496094 5.957031 16.460938 5.945312 C 16.417969 5.929688 16.371094 5.910156 16.328125 5.886719 C 16.292969 5.867188 16.257812 5.839844 16.230469 5.808594 C 16.203125 5.78125 16.183594 5.746094 16.171875 5.710938 C 16.15625 5.664062 16.148438 5.621094 16.148438 5.574219 C 16.148438 5.511719 16.164062 5.449219 16.195312 5.390625 C 16.226562 5.339844 16.269531 5.296875 16.320312 5.265625 C 16.375 5.234375 16.4375 5.210938 16.5 5.199219 C 16.566406 5.183594 16.636719 5.175781 16.707031 5.179688 C 16.765625 5.179688 16.820312 5.183594 16.878906 5.191406 C 16.933594 5.199219 16.992188 5.210938 17.046875 5.226562 L 17.046875 5.527344 C 16.996094 5.5 16.945312 5.476562 16.886719 5.464844 C 16.835938 5.449219 16.777344 5.441406 16.722656 5.441406 C 16.699219 5.441406 16.675781 5.445312 16.648438 5.449219 C 16.628906 5.453125 16.609375 5.460938 16.589844 5.46875 C 16.574219 5.476562 16.5625 5.488281 16.550781 5.5 C 16.539062 5.515625 16.535156 5.53125 16.535156 5.546875 C 16.535156 5.570312 16.542969 5.589844 16.558594 5.605469 C 16.574219 5.625 16.59375 5.636719 16.613281 5.648438 C 16.640625 5.660156 16.667969 5.671875 16.695312 5.679688 L 16.78125 5.710938 C 16.828125 5.726562 16.875 5.746094 16.921875 5.769531 C 16.960938 5.789062 16.996094 5.816406 17.03125 5.84375 C 17.058594 5.875 17.082031 5.90625 17.097656 5.945312 C 17.136719 6.054688 17.128906 6.171875 17.074219 6.273438 C 17.042969 6.328125 16.996094 6.371094 16.945312 6.402344 C 16.886719 6.4375 16.824219 6.464844 16.757812 6.476562 C 16.6875 6.492188 16.613281 6.5 16.539062 6.5 C 16.410156 6.5 16.277344 6.476562 16.15625 6.433594 Z M 17.949219 6.5 C 17.765625 6.511719 17.585938 6.449219 17.449219 6.324219 C 17.328125 6.195312 17.261719 6.019531 17.269531 5.84375 C 17.257812 5.660156 17.328125 5.480469 17.457031 5.351562 C 17.597656 5.230469 17.777344 5.167969 17.964844 5.175781 C 18.144531 5.164062 18.324219 5.230469 18.457031 5.351562 C 18.578125 5.476562 18.644531 5.644531 18.636719 5.820312 C 18.648438 6.003906 18.582031 6.1875 18.453125 6.320312 C 18.316406 6.445312 18.136719 6.511719 17.949219 6.5 Z M 17.960938 5.472656 C 17.878906 5.46875 17.800781 5.503906 17.746094 5.570312 C 17.691406 5.648438 17.664062 5.742188 17.671875 5.839844 C 17.671875 6.078125 17.769531 6.199219 17.964844 6.199219 C 18.160156 6.199219 18.25 6.078125 18.242188 5.828125 C 18.242188 5.589844 18.148438 5.472656 17.960938 5.472656 Z M 19.679688 4.898438 C 19.632812 4.882812 19.582031 4.871094 19.535156 4.871094 C 19.410156 4.871094 19.347656 4.9375 19.347656 5.070312 L 19.347656 5.199219 L 19.636719 5.199219 L 19.636719 5.488281 L 19.347656 5.488281 L 19.347656 6.464844 L 18.957031 6.464844 L 18.957031 5.492188 L 18.746094 5.492188 L 18.746094 5.199219 L 18.957031 5.199219 L 18.957031 5.046875 C 18.953125 4.917969 19.003906 4.789062 19.101562 4.699219 C 19.207031 4.609375 19.34375 4.558594 19.480469 4.566406 C 19.550781 4.566406 19.617188 4.574219 19.683594 4.59375 Z M 20.632812 6.449219 C 20.550781 6.484375 20.464844 6.5 20.375 6.496094 C 20.097656 6.496094 19.960938 6.355469 19.960938 6.070312 L 19.960938 5.492188 L 19.757812 5.492188 L 19.757812 5.199219 L 19.960938 5.199219 L 19.960938 4.929688 L 20.351562 4.820312 L 20.351562 5.199219 L 20.632812 5.199219 L 20.632812 5.488281 L 20.351562 5.488281 L 20.351562 6 C 20.351562 6.132812 20.402344 6.199219 20.507812 6.199219 C 20.550781 6.199219 20.59375 6.1875 20.632812 6.164062 Z M 12.714844 20.652344 L 13.1875 22.101562 L 14.710938 22.101562 L 13.476562 22.996094 L 13.949219 24.445312 L 12.714844 23.550781 L 11.480469 24.445312 L 11.953125 22.996094 L 10.71875 22.101562 L 12.242188 22.101562 Z M 17.285156 20.652344 L 17.757812 22.101562 L 19.28125 22.101562 L 18.046875 22.996094 L 18.519531 24.445312 L 17.285156 23.550781 L 16.050781 24.445312 L 16.523438 22.996094 L 15.289062 22.101562 L 16.8125 22.101562 Z M 17.285156 20.652344 "/>
<path style=" stroke:none;fill-rule:nonzero;fill:rgb(31.37255%,31.37255%,31.37255%);fill-opacity:1;" d="M 28.339844 11.847656 C 28.082031 11.488281 27.695312 11.25 27.261719 11.179688 C 26.175781 10.992188 25.089844 10.832031 24 10.691406 C 18.019531 9.941406 11.972656 9.941406 5.992188 10.691406 C 4.90625 10.832031 3.820312 10.992188 2.738281 11.179688 C 2.304688 11.25 1.917969 11.488281 1.660156 11.847656 C 1.453125 12.144531 1.371094 12.515625 1.4375 12.871094 L 2.535156 18.609375 C 2.695312 19.382812 3.441406 19.890625 4.21875 19.757812 C 4.910156 19.636719 5.605469 19.53125 6.300781 19.433594 C 12.277344 18.605469 18.339844 18.636719 24.308594 19.519531 C 24.804688 19.59375 25.296875 19.671875 25.789062 19.757812 C 25.871094 19.773438 25.957031 19.777344 26.039062 19.777344 C 26.734375 19.78125 27.332031 19.292969 27.472656 18.609375 L 28.566406 12.871094 C 28.632812 12.515625 28.550781 12.144531 28.339844 11.847656 Z M 28.339844 11.847656 "/>
<path style=" stroke:none;fill-rule:nonzero;fill:rgb(100%,100%,100%);fill-opacity:1;" d="M 27.164062 11.742188 C 19.113281 10.355469 10.886719 10.355469 2.835938 11.742188 C 2.554688 11.785156 2.300781 11.941406 2.136719 12.171875 C 2.011719 12.34375 1.964844 12.558594 2 12.765625 L 3.101562 18.5 C 3.199219 18.96875 3.652344 19.273438 4.121094 19.191406 C 11.324219 17.949219 18.6875 17.949219 25.886719 19.191406 C 26.359375 19.269531 26.804688 18.964844 26.90625 18.5 L 28 12.765625 C 28.039062 12.558594 27.988281 12.34375 27.867188 12.171875 C 27.699219 11.941406 27.449219 11.785156 27.164062 11.742188 Z M 27.164062 11.742188 "/>
<path style=" stroke:none;fill-rule:nonzero;fill:rgb(15.686275%,15.686275%,15.686275%);fill-opacity:1;" d="M 8.023438 16 L 7.4375 16.058594 L 7.214844 15.542969 L 6.359375 15.628906 L 6.246094 16.175781 L 5.660156 16.234375 L 6.292969 13.753906 L 6.933594 13.6875 Z M 7.046875 15.140625 L 6.710938 14.359375 C 6.683594 14.292969 6.660156 14.222656 6.648438 14.148438 L 6.636719 14.148438 C 6.636719 14.222656 6.628906 14.292969 6.613281 14.363281 L 6.433594 15.199219 Z M 8.253906 15.898438 L 8.21875 15.363281 C 8.320312 15.4375 8.429688 15.492188 8.550781 15.527344 C 8.660156 15.5625 8.78125 15.574219 8.898438 15.566406 C 8.957031 15.5625 9.015625 15.554688 9.074219 15.535156 C 9.121094 15.523438 9.160156 15.503906 9.199219 15.476562 C 9.230469 15.457031 9.253906 15.425781 9.269531 15.394531 C 9.285156 15.363281 9.292969 15.328125 9.289062 15.296875 C 9.285156 15.25 9.269531 15.207031 9.242188 15.171875 C 9.207031 15.132812 9.167969 15.097656 9.125 15.070312 C 9.070312 15.042969 9.011719 15.015625 8.953125 14.992188 C 8.886719 14.96875 8.816406 14.941406 8.742188 14.917969 C 8.578125 14.871094 8.425781 14.785156 8.300781 14.664062 C 8.199219 14.554688 8.140625 14.414062 8.136719 14.265625 C 8.125 14.152344 8.144531 14.039062 8.191406 13.9375 C 8.234375 13.84375 8.300781 13.761719 8.382812 13.699219 C 8.472656 13.632812 8.570312 13.582031 8.675781 13.550781 C 8.792969 13.515625 8.914062 13.496094 9.035156 13.488281 C 9.148438 13.480469 9.257812 13.480469 9.371094 13.488281 C 9.460938 13.496094 9.554688 13.511719 9.640625 13.539062 L 9.675781 14.039062 C 9.628906 14.015625 9.585938 13.992188 9.539062 13.976562 C 9.488281 13.957031 9.4375 13.941406 9.386719 13.933594 C 9.339844 13.921875 9.289062 13.914062 9.234375 13.910156 C 9.1875 13.90625 9.140625 13.90625 9.09375 13.910156 C 9.035156 13.914062 8.980469 13.921875 8.925781 13.9375 C 8.882812 13.953125 8.839844 13.972656 8.800781 14 C 8.769531 14.019531 8.742188 14.050781 8.722656 14.082031 C 8.707031 14.113281 8.699219 14.148438 8.703125 14.183594 C 8.703125 14.21875 8.71875 14.257812 8.742188 14.289062 C 8.769531 14.324219 8.800781 14.351562 8.839844 14.371094 C 8.886719 14.402344 8.9375 14.425781 8.988281 14.445312 C 9.054688 14.472656 9.121094 14.5 9.1875 14.519531 C 9.28125 14.550781 9.367188 14.585938 9.453125 14.632812 C 9.53125 14.667969 9.601562 14.714844 9.660156 14.769531 C 9.71875 14.824219 9.765625 14.886719 9.800781 14.960938 C 9.835938 15.039062 9.855469 15.125 9.859375 15.210938 C 9.871094 15.328125 9.851562 15.445312 9.804688 15.554688 C 9.761719 15.648438 9.695312 15.726562 9.613281 15.789062 C 9.523438 15.855469 9.421875 15.902344 9.3125 15.929688 C 9.195312 15.964844 9.074219 15.984375 8.949219 15.992188 C 8.824219 16 8.699219 15.996094 8.574219 15.980469 C 8.464844 15.96875 8.355469 15.941406 8.253906 15.898438 Z M 10.238281 15.777344 L 10.214844 15.242188 C 10.40625 15.390625 10.644531 15.46875 10.890625 15.460938 C 10.949219 15.457031 11.007812 15.449219 11.066406 15.433594 C 11.113281 15.421875 11.152344 15.402344 11.191406 15.378906 C 11.222656 15.355469 11.246094 15.328125 11.265625 15.296875 C 11.28125 15.265625 11.289062 15.230469 11.285156 15.195312 C 11.285156 15.152344 11.269531 15.109375 11.242188 15.074219 C 11.210938 15.03125 11.171875 15 11.128906 14.972656 C 11.074219 14.941406 11.015625 14.914062 10.957031 14.890625 C 10.890625 14.863281 10.820312 14.835938 10.746094 14.808594 C 10.585938 14.757812 10.4375 14.664062 10.316406 14.539062 C 10.21875 14.429688 10.164062 14.285156 10.160156 14.140625 C 10.152344 14.027344 10.175781 13.914062 10.222656 13.8125 C 10.269531 13.722656 10.339844 13.640625 10.425781 13.582031 C 10.515625 13.515625 10.617188 13.46875 10.722656 13.441406 C 10.839844 13.410156 10.964844 13.390625 11.085938 13.386719 C 11.195312 13.378906 11.308594 13.382812 11.417969 13.394531 C 11.511719 13.40625 11.601562 13.425781 11.6875 13.453125 L 11.710938 13.953125 C 11.667969 13.925781 11.621094 13.902344 11.574219 13.886719 C 11.527344 13.867188 11.476562 13.851562 11.425781 13.839844 C 11.375 13.824219 11.324219 13.816406 11.273438 13.8125 C 11.226562 13.808594 11.179688 13.808594 11.132812 13.8125 C 11.074219 13.816406 11.019531 13.824219 10.964844 13.839844 C 10.921875 13.847656 10.878906 13.867188 10.839844 13.894531 C 10.808594 13.914062 10.78125 13.941406 10.761719 13.972656 C 10.746094 14.003906 10.738281 14.035156 10.738281 14.070312 C 10.738281 14.109375 10.753906 14.148438 10.773438 14.179688 C 10.800781 14.214844 10.835938 14.242188 10.875 14.265625 C 10.921875 14.296875 10.96875 14.324219 11.019531 14.34375 C 11.078125 14.367188 11.140625 14.394531 11.214844 14.421875 C 11.304688 14.453125 11.390625 14.492188 11.476562 14.539062 C 11.550781 14.578125 11.617188 14.625 11.675781 14.683594 C 11.734375 14.738281 11.777344 14.804688 11.8125 14.875 C 11.84375 14.957031 11.863281 15.042969 11.863281 15.128906 C 11.875 15.246094 11.851562 15.363281 11.800781 15.46875 C 11.753906 15.5625 11.6875 15.640625 11.601562 15.699219 C 11.511719 15.761719 11.410156 15.808594 11.300781 15.835938 C 11.183594 15.863281 11.058594 15.878906 10.9375 15.886719 C 10.8125 15.890625 10.683594 15.886719 10.558594 15.867188 C 10.449219 15.851562 10.339844 15.824219 10.238281 15.777344 Z M 13.351562 15.8125 C 13.035156 15.832031 12.726562 15.714844 12.503906 15.492188 C 12.277344 15.257812 12.152344 14.945312 12.160156 14.621094 C 12.140625 14.28125 12.253906 13.949219 12.476562 13.691406 C 12.703125 13.449219 13.019531 13.316406 13.347656 13.324219 C 13.660156 13.308594 13.964844 13.425781 14.1875 13.648438 C 14.410156 13.886719 14.527344 14.207031 14.519531 14.53125 C 14.539062 14.871094 14.425781 15.199219 14.203125 15.453125 C 13.984375 15.691406 13.671875 15.820312 13.351562 15.8125 Z M 13.339844 13.789062 C 13.164062 13.789062 12.996094 13.871094 12.890625 14.011719 C 12.671875 14.359375 12.679688 14.804688 12.910156 15.144531 C 13.015625 15.277344 13.179688 15.351562 13.351562 15.34375 C 13.523438 15.347656 13.6875 15.269531 13.792969 15.136719 C 13.910156 14.96875 13.964844 14.769531 13.949219 14.570312 C 13.957031 14.363281 13.898438 14.160156 13.78125 13.992188 C 13.675781 13.855469 13.511719 13.78125 13.339844 13.789062 Z M 16.71875 15.683594 C 16.503906 15.773438 16.265625 15.816406 16.03125 15.804688 C 15.660156 15.804688 15.371094 15.695312 15.160156 15.472656 C 14.945312 15.238281 14.832031 14.921875 14.851562 14.601562 C 14.839844 14.253906 14.972656 13.917969 15.214844 13.667969 C 15.460938 13.429688 15.800781 13.300781 16.144531 13.316406 C 16.347656 13.3125 16.546875 13.34375 16.738281 13.410156 L 16.738281 13.933594 C 16.570312 13.832031 16.382812 13.78125 16.1875 13.785156 C 15.984375 13.773438 15.785156 13.847656 15.640625 13.992188 C 15.496094 14.148438 15.417969 14.355469 15.425781 14.570312 C 15.414062 14.773438 15.484375 14.972656 15.617188 15.128906 C 15.757812 15.269531 15.949219 15.347656 16.148438 15.339844 C 16.351562 15.34375 16.550781 15.289062 16.730469 15.1875 Z M 17.738281 15.800781 L 17.195312 15.785156 L 17.257812 13.378906 L 17.800781 13.394531 Z M 20.460938 15.898438 L 19.871094 15.875 L 19.722656 15.332031 L 18.867188 15.292969 L 18.675781 15.820312 L 18.085938 15.796875 L 19.070312 13.429688 L 19.710938 13.457031 Z M 19.617188 14.910156 L 19.398438 14.09375 C 19.382812 14.023438 19.371094 13.949219 19.367188 13.875 L 19.355469 13.875 C 19.347656 13.945312 19.328125 14.015625 19.304688 14.082031 L 19.003906 14.882812 Z M 22.398438 14.070312 L 21.714844 14.023438 L 21.578125 15.984375 L 21.035156 15.945312 L 21.171875 13.984375 L 20.492188 13.9375 L 20.523438 13.496094 L 22.429688 13.632812 Z M 24.070312 16.214844 L 22.632812 16.066406 L 22.875 13.667969 L 24.257812 13.808594 L 24.214844 14.246094 L 23.371094 14.160156 L 23.316406 14.695312 L 24.101562 14.773438 L 24.054688 15.214844 L 23.273438 15.132812 L 23.21875 15.679688 L 24.117188 15.773438 Z M 24.070312 16.214844 "/>
</g>
</svg>
